<svg width="28" height="28" viewBox="0 0 28 28" fill="none" xmlns="http://www.w3.org/2000/svg">
<path d="M10.9375 23.625C10.9375 24.0576 10.8092 24.4806 10.5688 24.8403C10.3285 25.2 9.98683 25.4804 9.58712 25.646C9.18741 25.8116 8.74757 25.8549 8.32324 25.7705C7.89891 25.6861 7.50913 25.4777 7.2032 25.1718C6.89728 24.8659 6.68894 24.4761 6.60453 24.0518C6.52013 23.6274 6.56345 23.1876 6.72901 22.7879C6.89458 22.3882 7.17496 22.0465 7.53469 21.8062C7.89442 21.5658 8.31735 21.4375 8.75 21.4375C9.32928 21.4404 9.88401 21.6718 10.2936 22.0814C10.7032 22.491 10.9346 23.0457 10.9375 23.625ZM20.125 21.4375C19.6924 21.4375 19.2694 21.5658 18.9097 21.8062C18.55 22.0465 18.2696 22.3882 18.104 22.7879C17.9384 23.1876 17.8951 23.6274 17.9795 24.0518C18.0639 24.4761 18.2723 24.8659 18.5782 25.1718C18.8841 25.4777 19.2739 25.6861 19.6982 25.7705C20.1226 25.8549 20.5624 25.8116 20.9621 25.646C21.3618 25.4804 21.7035 25.2 21.9438 24.8403C22.1842 24.4806 22.3125 24.0576 22.3125 23.625C22.3096 23.0457 22.0782 22.491 21.6686 22.0814C21.259 21.6718 20.7043 21.4404 20.125 21.4375ZM25.5172 8.23594L22.8703 17.4672C22.6859 18.1056 22.2994 18.667 21.769 19.0673C21.2386 19.4676 20.5927 19.6852 19.9281 19.6875H8.94688C8.28234 19.6852 7.63645 19.4676 7.106 19.0673C6.57556 18.667 6.18915 18.1056 6.00469 17.4672L3.36875 8.25781C3.36875 8.24688 3.35781 8.225 3.35781 8.21406L2.38437 4.8125H1.3125C0.964403 4.8125 0.630564 4.67422 0.384422 4.42808C0.138281 4.18194 0 3.8481 0 3.5C0 3.1519 0.138281 2.81806 0.384422 2.57192C0.630564 2.32578 0.964403 2.1875 1.3125 2.1875H2.7125C3.18777 2.1911 3.64933 2.34712 4.02932 2.6326C4.40931 2.91809 4.68766 3.31797 4.82344 3.77344L5.61094 6.5625H24.2484C24.4515 6.56366 24.6515 6.61151 24.833 6.70235C25.0146 6.79318 25.1728 6.92457 25.2955 7.08635C25.4181 7.24813 25.5019 7.43595 25.5404 7.63529C25.5788 7.83464 25.5709 8.04015 25.5172 8.23594ZM22.5094 9.1875H6.36563L8.52031 16.7453C8.5483 16.8368 8.60479 16.9169 8.68153 16.9739C8.75827 17.031 8.85124 17.062 8.94688 17.0625H19.9281C20.0238 17.062 20.1167 17.031 20.1935 16.9739C20.2702 16.9169 20.3267 16.8368 20.3547 16.7453L22.5094 9.1875Z" fill="black"/>
</svg>
