<svg width="119" height="48" viewBox="0 0 119 48" fill="none" xmlns="http://www.w3.org/2000/svg">
<path d="M1.925 17V0.825H12.9C14.15 0.825 15.2333 0.999999 16.15 1.35C17.0833 1.68333 17.8083 2.21667 18.325 2.95C18.8417 3.66667 19.1 4.59167 19.1 5.725C19.1 6.49167 18.9667 7.14167 18.7 7.675C18.4333 8.20833 18.0583 8.64167 17.575 8.975C17.1083 9.30833 16.5667 9.56667 15.95 9.75C15.3333 9.91667 14.675 10.025 13.975 10.075L13.625 9.875C14.7917 9.89167 15.75 9.99167 16.5 10.175C17.25 10.3417 17.8083 10.6583 18.175 11.125C18.5583 11.575 18.75 12.25 18.75 13.15V17H15.425V13.375C15.425 12.7583 15.3167 12.2833 15.1 11.95C14.8833 11.6 14.4917 11.3583 13.925 11.225C13.375 11.0917 12.575 11.025 11.525 11.025H5.25V17H1.925ZM5.25 8.425H12.9C13.8333 8.425 14.5417 8.2 15.025 7.75C15.525 7.3 15.775 6.69167 15.775 5.925C15.775 5.19167 15.525 4.63333 15.025 4.25C14.5417 3.86667 13.8333 3.675 12.9 3.675H5.25V8.425ZM28.1311 17.275C26.8977 17.275 25.7727 17.0083 24.7561 16.475C23.7561 15.925 22.9561 15.1667 22.3561 14.2C21.7727 13.2167 21.4811 12.0833 21.4811 10.8C21.4811 9.48333 21.7811 8.34167 22.3811 7.375C22.9811 6.40833 23.7894 5.65833 24.8061 5.125C25.8394 4.575 27.0061 4.3 28.3061 4.3C29.7394 4.3 30.8894 4.59167 31.7561 5.175C32.6394 5.74167 33.2811 6.51667 33.6811 7.5C34.0811 8.48333 34.2811 9.58333 34.2811 10.8C34.2811 11.5333 34.1644 12.2833 33.9311 13.05C33.6977 13.8 33.3394 14.5 32.8561 15.15C32.3727 15.7833 31.7394 16.3 30.9561 16.7C30.1727 17.0833 29.2311 17.275 28.1311 17.275ZM29.1811 14.775C30.1644 14.775 31.0144 14.6083 31.7311 14.275C32.4477 13.9417 32.9977 13.475 33.3811 12.875C33.7644 12.275 33.9561 11.5833 33.9561 10.8C33.9561 9.95 33.7561 9.23333 33.3561 8.65C32.9727 8.05 32.4227 7.6 31.7061 7.3C31.0061 6.98333 30.1644 6.825 29.1811 6.825C27.7977 6.825 26.7227 7.19167 25.9561 7.925C25.1894 8.64167 24.8061 9.6 24.8061 10.8C24.8061 11.6 24.9894 12.3 25.3561 12.9C25.7227 13.4833 26.2311 13.9417 26.8811 14.275C27.5477 14.6083 28.3144 14.775 29.1811 14.775ZM33.9561 4.575H37.2061V17H34.1811C34.1811 17 34.1561 16.8417 34.1061 16.525C34.0727 16.1917 34.0394 15.775 34.0061 15.275C33.9727 14.775 33.9561 14.2833 33.9561 13.8V4.575ZM49.1975 17.3C48.0975 17.3 47.1558 17.1083 46.3725 16.725C45.6058 16.325 44.9808 15.8083 44.4975 15.175C44.0141 14.525 43.6558 13.8167 43.4225 13.05C43.1891 12.2833 43.0725 11.5333 43.0725 10.8C43.0725 9.88333 43.1808 9.03333 43.3975 8.25C43.6308 7.46667 43.9891 6.78333 44.4725 6.2C44.9558 5.6 45.5808 5.13333 46.3475 4.8C47.1308 4.46667 48.0808 4.3 49.1975 4.3C50.4475 4.3 51.5725 4.575 52.5725 5.125C53.5725 5.675 54.3641 6.44167 54.9475 7.425C55.5475 8.39167 55.8475 9.51667 55.8475 10.8C55.8475 12.1167 55.5475 13.2667 54.9475 14.25C54.3475 15.2167 53.5475 15.9667 52.5475 16.5C51.5475 17.0333 50.4308 17.3 49.1975 17.3ZM48.1475 14.775C49.0308 14.775 49.7975 14.6083 50.4475 14.275C51.1141 13.9417 51.6225 13.4833 51.9725 12.9C52.3391 12.3 52.5225 11.6 52.5225 10.8C52.5225 9.6 52.1391 8.63333 51.3725 7.9C50.6225 7.16667 49.5475 6.8 48.1475 6.8C47.2641 6.8 46.4558 6.95833 45.7225 7.275C45.0058 7.59167 44.4391 8.05 44.0225 8.65C43.6058 9.23333 43.3975 9.95 43.3975 10.8C43.3975 11.6 43.5891 12.3 43.9725 12.9C44.3558 13.4833 44.9058 13.9417 45.6225 14.275C46.3391 14.6083 47.1808 14.775 48.1475 14.775ZM40.1475 4.575H43.2475L43.3975 7.875V22H40.1475V4.575ZM57.3633 4.575H67.0133V7.1H57.3633V4.575ZM60.5633 1.175H63.8133V17H60.5633V1.175ZM83.4531 17H80.2031V4.575H83.4531V17ZM80.3781 11.025L80.4031 11.875C80.3698 12.1083 80.2865 12.45 80.1531 12.9C80.0198 13.3333 79.8115 13.8 79.5281 14.3C79.2615 14.8 78.9115 15.2833 78.4781 15.75C78.0448 16.2 77.5115 16.575 76.8781 16.875C76.2448 17.1583 75.4948 17.3 74.6281 17.3C73.9448 17.3 73.2698 17.2167 72.6031 17.05C71.9531 16.8833 71.3615 16.6083 70.8281 16.225C70.2948 15.825 69.8698 15.2917 69.5531 14.625C69.2365 13.9583 69.0781 13.1167 69.0781 12.1V4.575H72.3281V11.55C72.3281 12.35 72.4531 12.9833 72.7031 13.45C72.9698 13.9 73.3531 14.2167 73.8531 14.4C74.3531 14.5833 74.9448 14.675 75.6281 14.675C76.5281 14.675 77.3031 14.4833 77.9531 14.1C78.6031 13.7 79.1281 13.2167 79.5281 12.65C79.9448 12.0833 80.2281 11.5417 80.3781 11.025ZM86.4121 4.575H89.6621V17H86.4121V4.575ZM94.4371 7.25C93.5038 7.25 92.6954 7.43333 92.0121 7.8C91.3288 8.15 90.7788 8.58333 90.3621 9.1C89.9454 9.61667 89.6538 10.1167 89.4871 10.6L89.4621 9.225C89.4788 9.025 89.5454 8.73333 89.6621 8.35C89.7788 7.95 89.9538 7.525 90.1871 7.075C90.4204 6.60833 90.7288 6.16667 91.1121 5.75C91.4954 5.31667 91.9621 4.96667 92.5121 4.7C93.0621 4.43333 93.7038 4.3 94.4371 4.3V7.25ZM107.771 12.875H110.921C110.788 13.725 110.43 14.4833 109.846 15.15C109.28 15.8167 108.505 16.3417 107.521 16.725C106.538 17.1083 105.338 17.3 103.921 17.3C102.338 17.3 100.938 17.05 99.7213 16.55C98.5046 16.0333 97.5546 15.2917 96.8713 14.325C96.188 13.3583 95.8463 12.1917 95.8463 10.825C95.8463 9.45833 96.1796 8.29167 96.8463 7.325C97.513 6.34167 98.438 5.59167 99.6213 5.075C100.821 4.55833 102.221 4.3 103.821 4.3C105.455 4.3 106.813 4.55833 107.896 5.075C108.98 5.59167 109.78 6.375 110.296 7.425C110.83 8.45833 111.055 9.78333 110.971 11.4H99.1213C99.2046 12.0333 99.438 12.6083 99.8213 13.125C100.221 13.6417 100.755 14.05 101.421 14.35C102.105 14.65 102.913 14.8 103.846 14.8C104.88 14.8 105.738 14.625 106.421 14.275C107.121 13.9083 107.571 13.4417 107.771 12.875ZM103.671 6.775C102.471 6.775 101.496 7.04167 100.746 7.575C99.9963 8.09167 99.513 8.73333 99.2963 9.5H107.746C107.663 8.66667 107.263 8.00833 106.546 7.525C105.846 7.025 104.888 6.775 103.671 6.775ZM4.45 43.475V40.7H15.15V43.475H4.45ZM0.425 47L8.025 30.825H11.625L19.3 47H15.675L9.025 32.425H10.625L4.025 47H0.425ZM19.4482 34.575H29.0982V37.1H19.4482V34.575ZM22.6482 31.175H25.8982V47H22.6482V31.175ZM42.5131 47V40.175C42.5131 39.4917 42.3964 38.925 42.1631 38.475C41.9298 38.025 41.5548 37.6833 41.0381 37.45C40.5381 37.2167 39.8631 37.1 39.0131 37.1C38.1964 37.1 37.4548 37.2583 36.7881 37.575C36.1214 37.875 35.5798 38.275 35.1631 38.775C34.7464 39.2583 34.5131 39.775 34.4631 40.325L34.4381 38.95C34.5214 38.4 34.7131 37.85 35.0131 37.3C35.3131 36.75 35.7131 36.25 36.2131 35.8C36.7131 35.35 37.3131 34.9917 38.0131 34.725C38.7298 34.4417 39.5298 34.3 40.4131 34.3C41.1798 34.3 41.8881 34.4 42.5381 34.6C43.1881 34.7833 43.7548 35.075 44.2381 35.475C44.7214 35.875 45.0964 36.375 45.3631 36.975C45.6298 37.5583 45.7631 38.25 45.7631 39.05V47H42.5131ZM31.3881 47V29.575H34.6381V47H31.3881ZM48.9668 29.575H52.2168V47H48.9668V29.575ZM66.8289 42.875H69.9789C69.8456 43.725 69.4872 44.4833 68.9039 45.15C68.3372 45.8167 67.5622 46.3417 66.5789 46.725C65.5956 47.1083 64.3956 47.3 62.9789 47.3C61.3956 47.3 59.9956 47.05 58.7789 46.55C57.5622 46.0333 56.6122 45.2917 55.9289 44.325C55.2456 43.3583 54.9039 42.1917 54.9039 40.825C54.9039 39.4583 55.2372 38.2917 55.9039 37.325C56.5706 36.3417 57.4956 35.5917 58.6789 35.075C59.8789 34.5583 61.2789 34.3 62.8789 34.3C64.5122 34.3 65.8706 34.5583 66.9539 35.075C68.0372 35.5917 68.8372 36.375 69.3539 37.425C69.8872 38.4583 70.1122 39.7833 70.0289 41.4H58.1789C58.2622 42.0333 58.4956 42.6083 58.8789 43.125C59.2789 43.6417 59.8122 44.05 60.4789 44.35C61.1622 44.65 61.9706 44.8 62.9039 44.8C63.9372 44.8 64.7956 44.625 65.4789 44.275C66.1789 43.9083 66.6289 43.4417 66.8289 42.875ZM62.7289 36.775C61.5289 36.775 60.5539 37.0417 59.8039 37.575C59.0539 38.0917 58.5706 38.7333 58.3539 39.5H66.8039C66.7206 38.6667 66.3206 38.0083 65.6039 37.525C64.9039 37.025 63.9456 36.775 62.7289 36.775ZM71.4014 34.575H81.0514V37.1H71.4014V34.575ZM74.6014 31.175H77.8514V47H74.6014V31.175ZM86.8412 29.125V31.975H83.0662V29.125H86.8412ZM83.3162 34.575H86.5662V47H83.3162V34.575ZM104.556 42.1C104.472 43.1833 104.122 44.1167 103.506 44.9C102.906 45.6833 102.072 46.2833 101.006 46.7C99.939 47.1 98.6723 47.3 97.2057 47.3C95.6723 47.3 94.2973 47.0583 93.0807 46.575C91.8807 46.075 90.9307 45.35 90.2307 44.4C89.5473 43.4333 89.2057 42.2417 89.2057 40.825C89.2057 39.4083 89.5473 38.2167 90.2307 37.25C90.9307 36.2833 91.8807 35.55 93.0807 35.05C94.2973 34.55 95.6723 34.3 97.2057 34.3C98.6723 34.3 99.9307 34.5083 100.981 34.925C102.031 35.325 102.856 35.9083 103.456 36.675C104.072 37.4417 104.431 38.3667 104.531 39.45H101.556C101.272 38.6167 100.747 37.9667 99.9807 37.5C99.214 37.0333 98.289 36.8 97.2057 36.8C96.339 36.8 95.5473 36.95 94.8307 37.25C94.1307 37.55 93.564 38 93.1307 38.6C92.714 39.1833 92.5057 39.925 92.5057 40.825C92.5057 41.7083 92.714 42.45 93.1307 43.05C93.5473 43.6333 94.114 44.075 94.8307 44.375C95.5473 44.6583 96.339 44.8 97.2057 44.8C98.3723 44.8 99.3223 44.5667 100.056 44.1C100.806 43.6333 101.314 42.9667 101.581 42.1H104.556ZM106.444 42.875H109.444C109.628 43.4417 110.003 43.9083 110.569 44.275C111.153 44.625 111.911 44.8 112.844 44.8C113.478 44.8 113.969 44.7417 114.319 44.625C114.669 44.5083 114.911 44.3417 115.044 44.125C115.178 43.8917 115.244 43.6333 115.244 43.35C115.244 43 115.136 42.7333 114.919 42.55C114.703 42.35 114.369 42.1917 113.919 42.075C113.469 41.9583 112.894 41.85 112.194 41.75C111.494 41.6333 110.819 41.4917 110.169 41.325C109.519 41.1583 108.944 40.9417 108.444 40.675C107.944 40.3917 107.544 40.0417 107.244 39.625C106.961 39.1917 106.819 38.6667 106.819 38.05C106.819 37.45 106.961 36.9167 107.244 36.45C107.544 35.9833 107.953 35.5917 108.469 35.275C109.003 34.9583 109.619 34.7167 110.319 34.55C111.036 34.3833 111.803 34.3 112.619 34.3C113.853 34.3 114.878 34.4833 115.694 34.85C116.511 35.2 117.119 35.7 117.519 36.35C117.936 36.9833 118.144 37.7167 118.144 38.55H115.269C115.136 37.9333 114.869 37.4917 114.469 37.225C114.069 36.9417 113.453 36.8 112.619 36.8C111.803 36.8 111.186 36.925 110.769 37.175C110.353 37.425 110.144 37.7667 110.144 38.2C110.144 38.55 110.269 38.825 110.519 39.025C110.786 39.2083 111.169 39.3583 111.669 39.475C112.186 39.5917 112.828 39.7167 113.594 39.85C114.244 39.9833 114.861 40.1333 115.444 40.3C116.044 40.4667 116.578 40.6833 117.044 40.95C117.511 41.2 117.878 41.5417 118.144 41.975C118.428 42.3917 118.569 42.925 118.569 43.575C118.569 44.375 118.336 45.05 117.869 45.6C117.419 46.15 116.769 46.575 115.919 46.875C115.069 47.1583 114.053 47.3 112.869 47.3C111.819 47.3 110.911 47.1917 110.144 46.975C109.394 46.7417 108.769 46.45 108.269 46.1C107.769 45.7333 107.378 45.35 107.094 44.95C106.828 44.5333 106.644 44.1417 106.544 43.775C106.444 43.4083 106.411 43.1083 106.444 42.875Z" fill="white"/>
</svg>
